<?xml version="1.0" encoding="utf-8"?>
<!-- Generator: Adobe Illustrator 19.1.0, SVG Export Plug-In . SVG Version: 6.00 Build 0)  -->
<svg version="1.0" id="Layer_1" xmlns="http://www.w3.org/2000/svg" xmlns:xlink="http://www.w3.org/1999/xlink" x="0px" y="0px"
	 width="32px" height="32px" viewBox="0 0 32 32" enable-background="new 0 0 32 32" xml:space="preserve">
<g>
	<circle fill="#FFFFFF" cx="16" cy="16" r="16"/>
	<path fill="#262626" d="M22.048,14.189c-0.175-0.516-0.664-0.883-1.241-0.883h-9.613c-0.577,0-1.057,0.367-1.241,0.883
		l-1.818,5.235v6.992c0,0.481,0.393,0.874,0.874,0.874h0.874c0.481,0,0.874-0.393,0.874-0.874v-0.874h10.487v0.874
		c0,0.481,0.393,0.874,0.874,0.874h0.874c0.481,0,0.874-0.393,0.874-0.874v-6.992L22.048,14.189z M11.193,22.919
		c-0.725,0-1.311-0.586-1.311-1.311s0.586-1.311,1.311-1.311c0.725,0,1.311,0.586,1.311,1.311S11.919,22.919,11.193,22.919z
		 M20.807,22.919c-0.725,0-1.311-0.586-1.311-1.311s0.586-1.311,1.311-1.311c0.725,0,1.311,0.586,1.311,1.311
		S21.532,22.919,20.807,22.919z M9.882,18.55l1.311-3.933h9.613l1.311,3.933H9.882z"/>
	<path fill="#262626" d="M19.974,6.101c0-2.195-1.779-3.974-3.974-3.974c-2.195,0-3.974,1.779-3.974,3.974
		c0,1.097,0.445,2.091,1.164,2.81L16,11.72l2.81-2.81h0C19.529,8.191,19.974,7.198,19.974,6.101z"/>
</g>
</svg>
