<svg version="1" xmlns="http://www.w3.org/2000/svg" width="933.333" height="933.333" viewBox="0 0 700.000000 700.000000"><path d="M332.2 48.5c-27.9 6.1-50.9 25-62 51.2-9.1 21.4-8.9 47.1.5 68.6 5.8 13.4 10.7 19.2 45.5 54.2l33.8 34 33.8-34c34.8-35 39.7-40.8 45.5-54.2 9.4-21.5 9.6-47.2.5-68.6-11.2-26.4-34.2-45.2-62.4-51.2-8.6-1.8-26.8-1.8-35.2 0zM238.5 291.9c-7.6 1.9-15.2 7.8-18.6 14.4-1.1 2.1-11 29.7-22 61.4L178 425.2v78.1c0 73.7.1 78.4 1.9 82.2 2.2 5 6.9 9.1 11.9 10.5 2 .5 9.1 1 15.7 1 14 0 18.6-1.6 23.9-8.3 3-3.8 3.1-4.1 3.4-16.8l.4-12.9h229.6l.4 12.9c.3 12.7.4 13 3.4 16.8 5.3 6.7 9.9 8.3 23.9 8.3 6.6 0 13.7-.5 15.7-1 5-1.4 9.7-5.5 11.9-10.5 1.8-3.8 1.9-8.5 1.9-82.3v-78.3l-19.9-57.2c-10.9-31.5-20.4-58.4-21-59.9-1.6-4.3-8.7-11.4-13.9-14l-4.7-2.3-110.5-.2c-60.8 0-111.8.2-113.5.6zm231.1 71.3l14.2 42.8H216.2l13.4-40.8c7.4-22.4 13.7-41.7 14-43l.6-2.2 105.6.2 105.5.3 14.3 42.7zM257 446.9c17.9 9.2 22 31.5 8.3 45.7-7.3 7.4-19.1 10.3-29.3 7.3-6.4-1.9-13.1-7.8-16.5-14.4-9.9-19.4 4.7-42.1 26.5-41.2 4.4.2 7.9 1 11 2.6zm208.3-.9c6.3 2.4 12.7 8.4 15.9 14.9 5.4 11.2 1.6 26.5-8.6 34.2-5.8 4.4-10.4 5.9-18.2 5.9-17 0-30.5-16.4-27.4-33.2 3.4-17.9 21.3-28.1 38.3-21.8z"/></svg>